<svg width="45" height="13" viewBox="0 0 45 13" fill="none" xmlns="http://www.w3.org/2000/svg">
<path fill-rule="evenodd" clip-rule="evenodd" d="M7.32984 0C9.60061 0 11.6948 0.366488 12.9722 1.49661C14.2037 2.58553 14.6601 4.39833 14.6597 6.5C14.6597 8.51353 14.2463 10.3704 12.9722 11.5034C11.744 12.5952 9.70004 13 7.32984 13C5.05906 13 2.96536 12.6335 1.68746 11.5034C0.456428 10.4145 0 8.60167 0 6.5C0 4.48648 0.413342 2.62961 1.68746 1.49661C2.91565 0.404813 4.95963 0 7.32984 0ZM7.79621 5.56058C8.49648 6.78796 8.08077 8.35738 6.86773 9.06593L3.9393 3.93415L6.86773 3.93415L7.79621 5.56058ZM5.31426 7.71545C5.31426 6.94702 4.69874 6.32423 3.93929 6.32423C3.17984 6.32423 2.56433 6.94702 2.56433 7.71545C2.56433 8.48387 3.17984 9.10666 3.93929 9.10666C4.69874 9.10666 5.31426 8.48387 5.31426 7.71545ZM10.2147 3.93415L12.2705 9.04197L9.3421 9.04197L8.06324 3.93415L10.2147 3.93415Z" fill="#2B2A29"/>
<path d="M29.509 3.96777H27.2554V5.77853V9.07429H29.509V3.96777Z" fill="#2B2A29"/>
<path d="M39.0252 3.96777H36.7669V5.77853V9.07429H39.0252V3.96777Z" fill="#2B2A29"/>
<path d="M34.3003 3.88184C33.022 3.88184 32.4917 5.60157 32.4917 5.60157H32.1887L32.6101 3.96806H30.4417V9.07458H32.6953V6.62192C32.6953 6.1333 32.8136 5.79798 33.1403 5.79798C33.467 5.79798 33.5854 6.1333 33.5854 6.62192V9.07458H35.8389V5.7357C35.8389 4.89739 35.4128 3.88184 34.3003 3.88184Z" fill="#2B2A29"/>
<path d="M24.7462 3.88184C23.8562 3.88184 23.3259 4.71536 23.0892 5.22314C22.985 5.44349 22.9377 5.60157 22.9377 5.60157C22.9377 5.60157 22.8288 5.60157 22.6347 5.60157C22.9093 4.53811 22.3601 3.88184 21.6026 3.88184C20.3243 3.88184 19.794 5.60157 19.794 5.60157H19.491L19.9124 3.96806H17.744V9.07458H19.9976V6.62671C19.9976 6.13809 20.116 5.80277 20.4426 5.80277C20.7693 5.80277 20.8877 6.13809 20.8877 6.62671V9.07937H23.1413V6.53569C23.1555 6.09977 23.2786 5.80277 23.5816 5.80277C23.9082 5.80277 24.0266 6.13809 24.0266 6.62671V9.07937H26.2802V5.7357C26.2802 4.89739 25.8588 3.88184 24.7462 3.88184Z" fill="#2B2A29"/>
<path d="M42.4197 8.01121C42.3819 8.01121 42.344 8.00642 42.3109 7.99684H42.3061C42.0694 7.9202 41.9794 7.61361 41.9794 7.18727V6.52141V5.86035C41.9794 5.43879 42.0694 5.12742 42.3061 5.05077H42.3109C42.3487 5.0364 42.3866 5.0364 42.4197 5.0364C42.789 5.0364 42.8837 5.67831 42.8979 6.19567C42.9784 6.19567 45 6.19567 45 6.19567C44.9669 5.137 44.323 3.88672 42.4197 3.88672C40.2467 3.88672 39.7685 5.37652 39.7685 6.52141C39.7685 7.66631 40.2467 9.15611 42.4197 9.15611C44.323 9.15611 44.9669 7.91062 45 6.84716C45 6.84716 42.9784 6.84716 42.8979 6.84716C42.879 7.36931 42.789 8.01121 42.4197 8.01121Z" fill="#2B2A29"/>
</svg>
